<?xml version="1.0" encoding="UTF-8"?>
<svg xmlns="http://www.w3.org/2000/svg" xmlns:xlink="http://www.w3.org/1999/xlink" width="4002" height="2002" viewBox="0 0 4002 2002">
<path fill="none" stroke-width="5.0003" stroke-linecap="butt" stroke-linejoin="miter" stroke="rgb(13.729858%, 12.159729%, 12.548828%)" stroke-opacity="1" stroke-miterlimit="2.61313" d="M 10 20010 L 40010 20010 L 40010 10 L 10 10 Z M 10 20010 " transform="matrix(0.1, 0, 0, -0.1, 0, 2002)"/>
<path fill-rule="evenodd" fill="rgb(0%, 0%, 0%)" fill-opacity="1" d="M 1975.839844 1 L 4001 1 L 4001 2001 L 1975.839844 2001 L 1975.839844 1 "/>
<path fill="none" stroke-width="5.0003" stroke-linecap="butt" stroke-linejoin="miter" stroke="rgb(13.729858%, 12.159729%, 12.548828%)" stroke-opacity="1" stroke-miterlimit="2.61313" d="M 19758.398438 20010 L 40010 20010 L 40010 10 L 19758.398438 10 Z M 19758.398438 20010 " transform="matrix(0.1, 0, 0, -0.1, 0, 2002)"/>
<path fill-rule="nonzero" fill="rgb(13.729858%, 12.159729%, 12.548828%)" fill-opacity="1" d="M 2541.800781 551 C 2541.800781 596.039062 2647.328125 654.109375 2858.148438 725.21875 L 2889 725.21875 L 2901.25 683.03125 C 2884.601562 667.148438 2865.988281 659.320312 2845.910156 659.320312 L 2845.910156 653.160156 C 2845.910156 647.46875 2856.191406 639.410156 2876.761719 628.75 L 2883.371094 628.75 C 2896.601562 628.75 2919.371094 634.910156 2951.441406 646.761719 C 2964.910156 638.941406 2977.160156 635.148438 2988.171875 635.148438 L 3031.761719 646.761719 C 3052.320312 634.910156 3068.980469 628.75 3081.21875 628.75 L 3087.828125 628.75 C 3109.871094 628.75 3124.070312 636.808594 3130.929688 653.160156 C 3098.851562 662.878906 3080.238281 674.96875 3074.851562 689.191406 C 3083.421875 716.921875 3089.789062 730.910156 3093.460938 730.910156 C 3316.769531 660.511719 3428.429688 604.570312 3428.429688 562.851562 C 3430.390625 562.851562 3436.75 558.820312 3447.28125 551 C 3641.449219 665.480469 3738.421875 813.390625 3738.421875 994.71875 C 3738.421875 1126.269531 3692.871094 1262.324219 3602.03125 1403.121094 C 3569.960938 1351.210938 3541.058594 1325.375 3515.351562 1325.375 L 3508.738281 1325.375 C 3485.480469 1325.375 3456.589844 1337.226562 3422.058594 1360.691406 C 3378.480469 1296.929688 3333.179688 1264.933594 3285.679688 1264.933594 L 3186.75 1300.960938 C 3153.699219 1257.109375 3118.679688 1235.066406 3081.21875 1235.066406 L 3069.21875 1235.066406 C 3027.601562 1235.066406 3006.78125 1267.066406 3006.78125 1330.828125 C 2998.460938 1394.347656 2994.539062 1434.410156 2994.539062 1451 L 2982.300781 1451 C 2974.21875 1311.152344 2957.808594 1241.230469 2932.828125 1241.230469 C 2925.730469 1237.199219 2917.160156 1235.066406 2907.609375 1235.066406 L 2895.621094 1235.066406 C 2863.539062 1235.066406 2826.078125 1257.109375 2783.71875 1300.960938 L 2777.839844 1300.960938 C 2745.269531 1279.152344 2712.21875 1267.304688 2678.179688 1264.933594 C 2643.171875 1270.386719 2600.070312 1302.382812 2548.410156 1360.691406 C 2524.898438 1337.226562 2498.210938 1325.375 2468.101562 1325.375 L 2449.238281 1325.375 C 2430.140625 1331.300781 2405.410156 1357.136719 2374.800781 1403.121094 C 2283.960938 1258.53125 2238.421875 1124.609375 2238.421875 1001.121094 C 2238.421875 805.089844 2339.539062 655.289062 2541.800781 551 "/>
<path fill-rule="evenodd" fill="rgb(0%, 0%, 0%)" fill-opacity="1" d="M 1975.839844 1 L 4001 1 L 4001 2001 L 1975.839844 2001 L 1975.839844 1 "/>
<path fill="none" stroke-width="5.0003" stroke-linecap="butt" stroke-linejoin="miter" stroke="rgb(13.729858%, 12.159729%, 12.548828%)" stroke-opacity="1" stroke-miterlimit="2.61313" d="M 19758.398438 20010 L 40010 20010 L 40010 10 L 19758.398438 10 Z M 19758.398438 20010 " transform="matrix(0.1, 0, 0, -0.1, 0, 2002)"/>
<path fill-rule="nonzero" fill="rgb(100%, 100%, 100%)" fill-opacity="1" d="M 2593.621094 251 L 2605.328125 251 C 2629.421875 359.699219 2757.230469 413.878906 2988.421875 413.878906 C 3207.558594 413.878906 3337.039062 364.011719 3377.53125 263.550781 L 3377.53125 251 L 3390.238281 251 L 3390.238281 271.089844 C 3390.238281 362.21875 3355.78125 429.308594 3286.519531 472.71875 C 3319.308594 472.71875 3341.390625 520.429688 3353.101562 615.859375 L 3353.101562 635.960938 C 3353.101562 696.230469 3331.019531 752.550781 3286.519531 804.941406 C 3296.230469 804.941406 3326.671875 835.429688 3377.53125 896.421875 C 3318.980469 929.421875 3260.089844 972.839844 3201.210938 1026.652344 C 3119.570312 1134.640625 3056.671875 1241.191406 3012.839844 1346.3125 C 3005.820312 1381.472656 2997.789062 1399.050781 2988.421875 1399.050781 L 2982.730469 1399.050781 C 2893.730469 1150.066406 2775.960938 989.339844 2629.75 916.511719 C 2622.390625 912.210938 2614.359375 910.050781 2605.328125 910.050781 L 2605.328125 896.421875 C 2646.480469 839.019531 2676.929688 808.519531 2696.328125 804.941406 C 2648.160156 751.839844 2623.730469 691.210938 2623.730469 623.039062 C 2623.730469 567.070312 2646.148438 515.050781 2690.648438 466.621094 L 2690.648438 460.160156 C 2631.089844 440.070312 2598.640625 383.03125 2593.621094 290.101562 Z M 2690.648438 648.511719 C 2706.710938 740.359375 2747.53125 786.28125 2812.101562 786.28125 L 2848.230469 786.28125 C 2911.128906 786.28125 2949.609375 736.050781 2963.988281 635.960938 C 2943.589844 544.828125 2905.109375 499.269531 2848.230469 499.269531 L 2817.789062 499.269531 C 2744.851562 499.269531 2702.359375 548.78125 2690.648438 648.511719 Z M 3018.859375 629.5 L 3018.859375 655.691406 C 3036.601562 742.511719 3077.078125 786.28125 3140.308594 786.28125 L 3165.070312 786.28125 C 3246.039062 766.550781 3286.519531 727.078125 3286.519531 668.238281 L 3286.519531 629.5 C 3270.800781 542.671875 3230.308594 499.269531 3165.070312 499.269531 L 3134.628906 499.269531 C 3076.410156 499.269531 3037.929688 542.671875 3018.859375 629.5 Z M 2830.828125 525.460938 C 2899.421875 543.75 2933.550781 578.191406 2933.550781 629.5 L 2933.550781 655.691406 C 2933.550781 711.300781 2897.410156 745.738281 2824.808594 759.730469 C 2755.550781 744.300781 2720.761719 707.351562 2720.761719 648.511719 L 2720.761719 629.5 C 2720.761719 574.25 2757.558594 539.449219 2830.828125 525.460938 Z M 3153.03125 525.460938 C 3225.628906 543.03125 3262.101562 581.78125 3262.101562 642.058594 C 3250.71875 720.621094 3214.589844 759.730469 3153.03125 759.730469 C 3083.769531 742.148438 3049.308594 709.859375 3049.308594 662.148438 L 3049.308594 623.039062 C 3049.308594 575.679688 3083.769531 543.03125 3153.03125 525.460938 Z M 3122.921875 577.121094 L 3122.921875 603.308594 C 3122.921875 613 3132.949219 619.808594 3153.03125 623.039062 C 3168.75 618.371094 3176.78125 605.101562 3176.78125 583.210938 C 3175.449219 574.96875 3165.410156 566.359375 3146.339844 558.101562 C 3130.609375 564.199219 3122.921875 570.660156 3122.921875 577.121094 Z M 2781.648438 590.75 L 2781.648438 609.410156 C 2781.648438 615.859375 2788.011719 622.320312 2800.390625 629.5 L 2817.789062 629.5 C 2830.5 625.191406 2836.519531 612.28125 2836.519531 590.75 C 2836.519531 584.289062 2830.5 577.480469 2817.789062 570.660156 L 2800.390625 570.660156 C 2794.371094 570.660156 2788.339844 577.480469 2781.648438 590.75 Z M 2988.421875 759.730469 L 2963.988281 798.839844 L 2963.988281 812.46875 C 2978.378906 838.300781 2988.421875 851.210938 2994.441406 851.210938 L 3018.859375 804.941406 C 3005.148438 774.800781 2995.109375 759.730469 2988.421875 759.730469 Z M 2580.570312 935.519531 C 2736.820312 1009.789062 2852.578125 1155.445312 2927.859375 1372.503906 C 2956.628906 1470.804688 2970.691406 1566.234375 2970.691406 1659.515625 L 2970.691406 1738.441406 C 2970.691406 1746.695312 2966.671875 1751 2957.96875 1751 C 2678.269531 1484.078125 2538.421875 1264.515625 2538.421875 1091.949219 C 2538.421875 1034.546875 2552.46875 982.160156 2580.570312 935.519531 Z M 3402.28125 942.699219 L 3407.96875 942.699219 C 3428.378906 996.511719 3438.421875 1040.285156 3438.421875 1072.933594 L 3438.421875 1099.480469 C 3438.421875 1272.40625 3300.570312 1487.664062 3024.890625 1744.539062 L 3012.839844 1744.539062 C 3012.839844 1723.734375 3011.171875 1701.851562 3007.160156 1679.605469 C 3007.160156 1363.53125 3124.589844 1122.082031 3360.128906 955.261719 L 3402.28125 942.699219 "/>
<path fill-rule="nonzero" fill="rgb(13.729858%, 12.159729%, 12.548828%)" fill-opacity="1" d="M 656.03125 251 L 667.742188 251 C 691.832031 359.699219 819.636719 413.878906 1050.828125 413.878906 C 1269.980469 413.878906 1399.449219 364.011719 1439.941406 263.550781 L 1439.941406 251 L 1452.648438 251 L 1452.648438 271.089844 C 1452.648438 362.21875 1418.191406 429.308594 1348.929688 472.71875 C 1381.71875 472.71875 1403.800781 520.429688 1415.511719 615.859375 L 1415.511719 635.960938 C 1415.511719 696.230469 1393.429688 752.550781 1348.929688 804.941406 C 1358.640625 804.941406 1389.078125 835.429688 1439.941406 896.421875 C 1381.390625 929.421875 1322.5 972.839844 1263.621094 1026.652344 C 1181.980469 1134.640625 1119.078125 1241.191406 1075.25 1346.3125 C 1068.230469 1381.472656 1060.199219 1399.050781 1050.828125 1399.050781 L 1045.140625 1399.050781 C 956.144531 1150.066406 838.375 989.339844 692.164062 916.511719 C 684.804688 912.210938 676.773438 910.050781 667.742188 910.050781 L 667.742188 896.421875 C 708.894531 839.019531 739.339844 808.519531 758.746094 804.941406 C 710.566406 751.839844 686.144531 691.210938 686.144531 623.039062 C 686.144531 567.070312 708.558594 515.050781 753.058594 466.621094 L 753.058594 460.160156 C 693.503906 440.070312 661.050781 383.03125 656.03125 290.101562 Z M 753.058594 648.511719 C 769.117188 740.359375 809.9375 786.28125 874.507812 786.28125 L 910.640625 786.28125 C 973.542969 786.28125 1012.019531 736.050781 1026.398438 635.960938 C 1006 544.828125 967.519531 499.269531 910.640625 499.269531 L 880.195312 499.269531 C 807.257812 499.269531 764.769531 548.78125 753.058594 648.511719 Z M 1081.269531 629.5 L 1081.269531 655.691406 C 1099.011719 742.511719 1139.488281 786.28125 1202.71875 786.28125 L 1227.480469 786.28125 C 1308.449219 766.550781 1348.929688 727.078125 1348.929688 668.238281 L 1348.929688 629.5 C 1333.210938 542.671875 1292.730469 499.269531 1227.480469 499.269531 L 1197.039062 499.269531 C 1138.820312 499.269531 1100.351562 542.671875 1081.269531 629.5 Z M 893.242188 525.460938 C 961.832031 543.75 995.957031 578.191406 995.957031 629.5 L 995.957031 655.691406 C 995.957031 711.300781 959.824219 745.738281 887.222656 759.730469 C 817.964844 744.300781 783.167969 707.351562 783.167969 648.511719 L 783.167969 629.5 C 783.167969 574.25 819.972656 539.449219 893.242188 525.460938 Z M 1215.441406 525.460938 C 1288.039062 543.03125 1324.511719 581.78125 1324.511719 642.058594 C 1313.128906 720.621094 1277 759.730469 1215.441406 759.730469 C 1146.179688 742.148438 1111.71875 709.859375 1111.71875 662.148438 L 1111.71875 623.039062 C 1111.71875 575.679688 1146.179688 543.03125 1215.441406 525.460938 Z M 1185.328125 577.121094 L 1185.328125 603.308594 C 1185.328125 613 1195.359375 619.808594 1215.441406 623.039062 C 1231.160156 618.371094 1239.191406 605.101562 1239.191406 583.210938 C 1237.859375 574.96875 1227.820312 566.359375 1208.75 558.101562 C 1193.019531 564.199219 1185.328125 570.660156 1185.328125 577.121094 Z M 844.0625 590.75 L 844.0625 609.410156 C 844.0625 615.859375 850.421875 622.320312 862.796875 629.5 L 880.195312 629.5 C 892.910156 625.191406 898.929688 612.28125 898.929688 590.75 C 898.929688 584.289062 892.910156 577.480469 880.195312 570.660156 L 862.796875 570.660156 C 856.777344 570.660156 850.753906 577.480469 844.0625 590.75 Z M 1050.828125 759.730469 L 1026.398438 798.839844 L 1026.398438 812.46875 C 1040.789062 838.300781 1050.828125 851.210938 1056.851562 851.210938 L 1081.269531 804.941406 C 1067.558594 774.800781 1057.519531 759.730469 1050.828125 759.730469 Z M 642.984375 935.519531 C 799.230469 1009.789062 914.992188 1155.445312 990.269531 1372.503906 C 1019.039062 1470.804688 1033.101562 1566.234375 1033.101562 1659.515625 L 1033.101562 1738.441406 C 1033.101562 1746.695312 1029.078125 1751 1020.378906 1751 C 740.679688 1484.078125 600.828125 1264.515625 600.828125 1091.949219 C 600.828125 1034.546875 614.878906 982.160156 642.984375 935.519531 Z M 1464.691406 942.699219 L 1470.378906 942.699219 C 1490.789062 996.511719 1500.828125 1040.285156 1500.828125 1072.933594 L 1500.828125 1099.480469 C 1500.828125 1272.40625 1362.980469 1487.664062 1087.300781 1744.539062 L 1075.25 1744.539062 C 1075.25 1723.734375 1073.578125 1701.851562 1069.570312 1679.605469 C 1069.570312 1363.53125 1187 1122.082031 1422.539062 955.261719 L 1464.691406 942.699219 "/>
</svg>
